STARTFONT 2.1
FONT -Adobe-Times-Medium-I-Normal--18-180-75-75-P-94-ISO8859-2
SIZE 18 75 75
FONTBOUNDINGBOX 21 22 -2 -5
COMMENT $XConsortium: timI18.bdf,v 1.14 95/01/26 18:06:56 gildea Exp $
COMMENT 
COMMENT +
COMMENT  Copyright 1984-1989, 1994 Adobe Systems Incorporated.
COMMENT  Copyright 1988, 1994 Digital Equipment Corporation.
COMMENT
COMMENT  Adobe is a trademark of Adobe Systems Incorporated which may be
COMMENT  registered in certain jurisdictions.
COMMENT  Permission to use these trademarks is hereby granted only in
COMMENT  association with the images described in this file.
COMMENT
COMMENT  Permission to use, copy, modify, distribute and sell this software
COMMENT  and its documentation for any purpose and without fee is hereby
COMMENT  granted, provided that the above copyright notices appear in all
COMMENT  copies and that both those copyright notices and this permission
COMMENT  notice appear in supporting documentation, and that the names of
COMMENT  Adobe Systems and Digital Equipment Corporation not be used in
COMMENT  advertising or publicity pertaining to distribution of the software
COMMENT  without specific, written prior permission.  Adobe Systems and
COMMENT  Digital Equipment Corporation make no representations about the
COMMENT  suitability of this software for any purpose.  It is provided "as
COMMENT  is" without express or implied warranty.
COMMENT -
COMMENT  
COMMENT  Translation to ISO8859-2 by Cub Soft;  Petr.Kolar@vslib.cz
COMMENT  
STARTPROPERTIES 28
FOUNDRY "Adobe"
FAMILY_NAME "Times"
WEIGHT_NAME "Medium"
SLANT "I"
SETWIDTH_NAME "Normal"
ADD_STYLE_NAME ""
PIXEL_SIZE 18
POINT_SIZE 180
RESOLUTION_X 75
RESOLUTION_Y 75
SPACING "P"
AVERAGE_WIDTH 94
CHARSET_REGISTRY "ISO8859"
CHARSET_ENCODING "2"
CAP_HEIGHT 13
X_HEIGHT 8
FONT_ASCENT 15
FONT_DESCENT 4
FACE_NAME "Times Italic"

STARTCHAR space
ENCODING 32
SWIDTH 250 0
DWIDTH 4 0
BBX 1 1 0 0
BITMAP
00
ENDCHAR
STARTCHAR exclam
ENCODING 33
SWIDTH 333 0
DWIDTH 6 0
BBX 5 13 1 0
BITMAP
18
18
18
30
30
30
20
60
40
40
00
c0
c0
ENDCHAR
STARTCHAR quotedbl
ENCODING 34
SWIDTH 420 0
DWIDTH 8 0
BBX 6 4 2 9
BITMAP
cc
cc
cc
88
ENDCHAR
STARTCHAR numbersign
ENCODING 35
SWIDTH 500 0
DWIDTH 9 0
BBX 10 13 0 0
BITMAP
0900
0900
0900
0900
7fc0
1200
1200
1200
ff80
2400
2400
2400
2400
ENDCHAR
STARTCHAR dollar
ENCODING 36
SWIDTH 500 0
DWIDTH 9 0
BBX 9 16 1 -2
BITMAP
0200
0200
1f00
3580
3480
3c00
1c00
0e00
0f00
0b00
1300
9300
d600
7c00
2000
2000
ENDCHAR
STARTCHAR percent
ENCODING 37
SWIDTH 833 0
DWIDTH 15 0
BBX 14 13 1 0
BITMAP
3830
77f0
e460
c4c0
c580
c900
7338
0674
04e4
0cc4
18c4
10c8
3070
ENDCHAR
STARTCHAR ampersand
ENCODING 38
SWIDTH 778 0
DWIDTH 14 0
BBX 12 13 1 0
BITMAP
0300
0780
0480
0500
0700
0c00
1cf0
3660
62c0
c300
c300
e7b0
7ce0
ENDCHAR
STARTCHAR apostrophe
ENCODING 39
SWIDTH 333 0
DWIDTH 6 0
BBX 2 4 3 9
BITMAP
c0
c0
40
80
ENDCHAR
STARTCHAR parenleft
ENCODING 40
SWIDTH 333 0
DWIDTH 6 0
BBX 5 17 2 -4
BITMAP
08
10
30
20
60
60
c0
c0
c0
80
80
80
c0
c0
40
40
20
ENDCHAR
STARTCHAR parenright
ENCODING 41
SWIDTH 333 0
DWIDTH 6 0
BBX 5 17 0 -4
BITMAP
20
10
10
18
18
08
08
08
18
18
10
30
30
20
60
40
80
ENDCHAR
STARTCHAR asterisk
ENCODING 42
SWIDTH 500 0
DWIDTH 9 0
BBX 7 8 2 5
BITMAP
10
10
d6
7c
7c
d6
10
10
ENDCHAR
STARTCHAR plus
ENCODING 43
SWIDTH 675 0
DWIDTH 13 0
BBX 9 9 2 0
BITMAP
0800
0800
0800
0800
ff80
0800
0800
0800
0800
ENDCHAR
STARTCHAR comma
ENCODING 44
SWIDTH 250 0
DWIDTH 4 0
BBX 3 4 0 -2
BITMAP
60
60
60
c0
ENDCHAR
STARTCHAR minus
ENCODING 45
SWIDTH 675 0
DWIDTH 11 0
BBX 9 1 1 4
BITMAP
ff80
ENDCHAR
STARTCHAR period
ENCODING 46
SWIDTH 250 0
DWIDTH 4 0
BBX 2 2 1 0
BITMAP
c0
c0
ENDCHAR
STARTCHAR slash
ENCODING 47
SWIDTH 278 0
DWIDTH 5 0
BBX 5 13 1 0
BITMAP
08
08
18
10
10
30
20
60
60
40
c0
80
80
ENDCHAR
STARTCHAR zero
ENCODING 48
SWIDTH 500 0
DWIDTH 9 0
BBX 9 13 1 0
BITMAP
0e00
1b00
3180
2180
6180
6180
c180
c300
c300
c200
c600
6c00
3800
ENDCHAR
STARTCHAR one
ENCODING 49
SWIDTH 500 0
DWIDTH 9 0
BBX 6 13 2 0
BITMAP
3c
0c
0c
0c
18
18
18
18
30
30
30
30
fc
ENDCHAR
STARTCHAR two
ENCODING 50
SWIDTH 500 0
DWIDTH 9 0
BBX 8 13 1 0
BITMAP
1e
3f
47
03
03
06
04
0c
18
21
43
fe
fe
ENDCHAR
STARTCHAR three
ENCODING 51
SWIDTH 500 0
DWIDTH 9 0
BBX 9 13 0 0
BITMAP
0f00
1980
0180
0180
0300
1c00
0600
0300
0300
0300
0700
ce00
7800
ENDCHAR
STARTCHAR four
ENCODING 52
SWIDTH 500 0
DWIDTH 9 0
BBX 9 13 1 0
BITMAP
0180
0280
0580
0900
1100
2300
4200
8600
ff80
ff00
0400
0c00
0c00
ENDCHAR
STARTCHAR five
ENCODING 53
SWIDTH 500 0
DWIDTH 9 0
BBX 9 13 1 0
BITMAP
1f80
1f00
3000
3000
3c00
0e00
0300
0300
0300
0300
0600
cc00
f800
ENDCHAR
STARTCHAR six
ENCODING 54
SWIDTH 500 0
DWIDTH 9 0
BBX 10 13 1 0
BITMAP
01c0
0700
0c00
1800
3000
7e00
6300
c180
c180
c180
c300
6700
3c00
ENDCHAR
STARTCHAR seven
ENCODING 55
SWIDTH 500 0
DWIDTH 9 0
BBX 8 13 2 0
BITMAP
ff
ff
86
06
0c
0c
18
18
30
60
60
c0
c0
ENDCHAR
STARTCHAR eight
ENCODING 56
SWIDTH 500 0
DWIDTH 9 0
BBX 9 13 1 0
BITMAP
1f00
3180
3180
3180
1b00
0c00
3e00
6600
c300
c300
c300
c600
7c00
ENDCHAR
STARTCHAR nine
ENCODING 57
SWIDTH 500 0
DWIDTH 9 0
BBX 9 13 1 0
BITMAP
0e00
3b00
3180
6180
6180
6180
6180
7300
3f00
0600
0c00
3800
e000
ENDCHAR
STARTCHAR colon
ENCODING 58
SWIDTH 333 0
DWIDTH 6 0
BBX 3 8 2 0
BITMAP
60
60
00
00
00
00
c0
c0
ENDCHAR
STARTCHAR semicolon
ENCODING 59
SWIDTH 333 0
DWIDTH 6 0
BBX 4 10 1 -2
BITMAP
30
30
00
00
00
00
60
60
60
c0
ENDCHAR
STARTCHAR less
ENCODING 60
SWIDTH 675 0
DWIDTH 13 0
BBX 8 8 2 0
BITMAP
03
0e
38
e0
e0
38
0e
03
ENDCHAR
STARTCHAR equal
ENCODING 61
SWIDTH 675 0
DWIDTH 13 0
BBX 10 4 1 2
BITMAP
ffc0
0000
0000
ffc0
ENDCHAR
STARTCHAR greater
ENCODING 62
SWIDTH 675 0
DWIDTH 13 0
BBX 8 8 3 0
BITMAP
c0
70
1c
07
07
1c
70
c0
ENDCHAR
STARTCHAR question
ENCODING 63
SWIDTH 500 0
DWIDTH 9 0
BBX 6 13 2 0
BITMAP
38
6c
64
0c
0c
18
30
60
60
40
00
c0
c0
ENDCHAR
STARTCHAR at
ENCODING 64
SWIDTH 920 0
DWIDTH 17 0
BBX 15 15 1 -3
BITMAP
03f0
0e18
1804
3006
61b2
6362
c662
cc62
ccc6
ccc4
cdd8
e770
6000
3818
0fe0
ENDCHAR
STARTCHAR A
ENCODING 65
SWIDTH 611 0
DWIDTH 11 0
BBX 11 13 0 0
BITMAP
00c0
01c0
01c0
02c0
06c0
04c0
0cc0
08c0
1fc0
10c0
20c0
60c0
f1e0
ENDCHAR
STARTCHAR B
ENCODING 66
SWIDTH 611 0
DWIDTH 12 0
BBX 11 13 1 0
BITMAP
3f80
18e0
1860
1860
3060
31c0
3f00
3180
60c0
60c0
61c0
6380
fe00
ENDCHAR
STARTCHAR C
ENCODING 67
SWIDTH 667 0
DWIDTH 12 0
BBX 12 13 2 0
BITMAP
03d0
0c70
3820
3020
6000
e000
c000
c000
c000
c000
c040
6180
3e00
ENDCHAR
STARTCHAR D
ENCODING 68
SWIDTH 722 0
DWIDTH 14 0
BBX 13 13 1 0
BITMAP
3fc0
1870
1830
1818
3018
3018
3018
3030
6030
6060
60e0
6380
fe00
ENDCHAR
STARTCHAR E
ENCODING 69
SWIDTH 611 0
DWIDTH 11 0
BBX 10 13 1 0
BITMAP
3fc0
18c0
1840
1840
3100
3100
3e00
3200
6200
6040
6040
6180
ff80
ENDCHAR
STARTCHAR F
ENCODING 70
SWIDTH 611 0
DWIDTH 11 0
BBX 11 13 1 0
BITMAP
3fe0
1860
1820
1820
3080
3080
3f00
3100
6100
6000
6000
6000
f000
ENDCHAR
STARTCHAR G
ENCODING 71
SWIDTH 722 0
DWIDTH 14 0
BBX 12 13 2 0
BITMAP
03d0
0c70
3820
3020
6000
6000
e000
c1f0
c0c0
c0c0
4180
6180
3f00
ENDCHAR
STARTCHAR H
ENCODING 72
SWIDTH 722 0
DWIDTH 13 0
BBX 13 13 1 0
BITMAP
3c78
1830
1830
1830
3060
3060
3fe0
3060
60c0
60c0
60c0
60c0
f1e0
ENDCHAR
STARTCHAR I
ENCODING 73
SWIDTH 333 0
DWIDTH 6 0
BBX 6 13 1 0
BITMAP
3c
18
18
18
30
30
30
30
60
60
60
60
f0
ENDCHAR
STARTCHAR J
ENCODING 74
SWIDTH 444 0
DWIDTH 7 0
BBX 8 13 0 0
BITMAP
0f
06
06
06
0c
0c
0c
0c
18
18
d8
d8
70
ENDCHAR
STARTCHAR K
ENCODING 75
SWIDTH 667 0
DWIDTH 13 0
BBX 12 13 2 0
BITMAP
3cf0
1860
18c0
1980
3200
3400
3c00
3600
6300
6300
6180
61c0
f3e0
ENDCHAR
STARTCHAR L
ENCODING 76
SWIDTH 556 0
DWIDTH 10 0
BBX 10 13 1 0
BITMAP
3c00
1800
1800
1800
3000
3000
3000
3000
6000
6040
6040
6180
ff80
ENDCHAR
STARTCHAR M
ENCODING 77
SWIDTH 833 0
DWIDTH 16 0
BBX 16 13 1 0
BITMAP
3c07
1c0e
1c1e
1416
1424
266c
264c
26cc
268c
2718
4718
4618
e43c
ENDCHAR
STARTCHAR N
ENCODING 78
SWIDTH 667 0
DWIDTH 12 0
BBX 14 13 0 0
BITMAP
3c3c
0c08
1e08
1618
1710
1310
3330
31b0
21a0
21e0
60e0
60c0
f040
ENDCHAR
STARTCHAR O
ENCODING 79
SWIDTH 722 0
DWIDTH 14 0
BBX 12 13 2 0
BITMAP
03c0
0c60
3830
3030
7030
6030
e070
c060
c0e0
c0c0
41c0
6380
3e00
ENDCHAR
STARTCHAR P
ENCODING 80
SWIDTH 611 0
DWIDTH 11 0
BBX 11 13 1 0
BITMAP
3fc0
18e0
1860
1860
3060
30c0
3f00
3000
6000
6000
6000
6000
f000
ENDCHAR
STARTCHAR Q
ENCODING 81
SWIDTH 722 0
DWIDTH 14 0
BBX 13 17 1 -4
BITMAP
01e0
0630
1c18
1818
3818
3018
7038
6030
6070
6060
20e0
31c0
1f00
1800
3020
7fc0
e780
ENDCHAR
STARTCHAR R
ENCODING 82
SWIDTH 611 0
DWIDTH 12 0
BBX 11 13 1 0
BITMAP
3fc0
18e0
1860
1860
30e0
31c0
3f00
3600
6300
6380
6180
61c0
f0e0
ENDCHAR
STARTCHAR S
ENCODING 83
SWIDTH 500 0
DWIDTH 9 0
BBX 9 13 1 0
BITMAP
0f80
1980
3080
3080
3800
1c00
0e00
0f00
0700
8300
8300
c600
fc00
ENDCHAR
STARTCHAR T
ENCODING 84
SWIDTH 556 0
DWIDTH 10 0
BBX 11 13 1 0
BITMAP
7fe0
c660
8620
0600
0c00
0c00
0c00
0c00
1800
1800
1800
1800
3c00
ENDCHAR
STARTCHAR U
ENCODING 85
SWIDTH 722 0
DWIDTH 14 0
BBX 13 13 2 0
BITMAP
7c78
3030
3020
3020
6060
6040
6040
e0c0
c080
c180
c180
e300
7e00
ENDCHAR
STARTCHAR V
ENCODING 86
SWIDTH 611 0
DWIDTH 11 0
BBX 11 13 2 0
BITMAP
f1e0
60c0
6080
6100
6200
6200
6400
6400
6800
7000
7000
6000
4000
ENDCHAR
STARTCHAR W
ENCODING 87
SWIDTH 833 0
DWIDTH 15 0
BBX 15 13 2 0
BITMAP
f3ce
6184
638c
6388
6598
6590
65a0
69a0
69c0
71c0
6180
6180
4100
ENDCHAR
STARTCHAR X
ENCODING 88
SWIDTH 611 0
DWIDTH 11 0
BBX 14 13 -1 0
BITMAP
3f7c
0c30
0e60
0640
0780
0300
0300
0780
0580
08c0
10c0
30e0
fbf0
ENDCHAR
STARTCHAR Y
ENCODING 89
SWIDTH 556 0
DWIDTH 11 0
BBX 11 13 2 0
BITMAP
f9e0
60c0
7180
3300
3600
1c00
1800
1800
1800
3000
3000
3000
fc00
ENDCHAR
STARTCHAR Z
ENCODING 90
SWIDTH 556 0
DWIDTH 10 0
BBX 12 13 0 0
BITMAP
3ff0
60e0
40c0
0180
0380
0700
0e00
1c00
1c00
3800
7020
60e0
ffc0
ENDCHAR
STARTCHAR bracketleft
ENCODING 91
SWIDTH 389 0
DWIDTH 7 0
BBX 8 16 1 -3
BITMAP
0f
0c
18
18
18
18
30
30
30
30
60
60
60
60
c0
f0
ENDCHAR
STARTCHAR backslash
ENCODING 92
SWIDTH 278 0
DWIDTH 5 0
BBX 5 13 0 0
BITMAP
80
c0
40
40
60
20
20
30
10
10
18
18
08
ENDCHAR
STARTCHAR bracketright
ENCODING 93
SWIDTH 389 0
DWIDTH 7 0
BBX 8 16 -1 -3
BITMAP
0f
03
06
06
06
06
0c
0c
0c
0c
18
18
18
18
30
f0
ENDCHAR
STARTCHAR asciicircum
ENCODING 94
SWIDTH 422 0
DWIDTH 8 0
BBX 7 7 1 6
BITMAP
08
1c
34
26
46
c2
82
ENDCHAR
STARTCHAR underscore
ENCODING 95
SWIDTH 500 0
DWIDTH 9 0
BBX 10 1 -1 -5
BITMAP
ffc0
ENDCHAR
STARTCHAR grave
ENCODING 96
SWIDTH 333 0
DWIDTH 6 0
BBX 4 3 3 10
BITMAP
c0
60
10
ENDCHAR
STARTCHAR a
ENCODING 97
SWIDTH 500 0
DWIDTH 10 0
BBX 9 8 1 0
BITMAP
1e80
6700
4300
c300
c600
c600
ee80
3300
ENDCHAR
STARTCHAR b
ENCODING 98
SWIDTH 500 0
DWIDTH 9 0
BBX 9 13 0 0
BITMAP
3800
1800
1800
1000
3000
3700
3980
3180
3180
6180
6300
6200
bc00
ENDCHAR
STARTCHAR c
ENCODING 99
SWIDTH 444 0
DWIDTH 8 0
BBX 7 8 1 0
BITMAP
1e
72
40
c0
c0
c0
e4
78
ENDCHAR
STARTCHAR d
ENCODING 100
SWIDTH 500 0
DWIDTH 10 0
BBX 9 13 1 0
BITMAP
0380
0180
0180
0180
0100
1d00
6700
4300
c200
c600
c600
ee80
3300
ENDCHAR
STARTCHAR e
ENCODING 101
SWIDTH 444 0
DWIDTH 8 0
BBX 7 8 1 0
BITMAP
1c
66
46
cc
f0
c2
e4
78
ENDCHAR
STARTCHAR f
ENCODING 102
SWIDTH 278 0
DWIDTH 5 0
BBX 9 17 -1 -4
BITMAP
0700
0d80
0c00
1800
1800
7e00
1800
1800
1800
1000
3000
3000
3000
2000
2000
e000
c000
ENDCHAR
STARTCHAR g
ENCODING 103
SWIDTH 500 0
DWIDTH 8 0
BBX 10 12 -1 -4
BITMAP
0fc0
1300
3180
3180
3b00
1e00
1000
3f00
6380
c180
e300
7c00
ENDCHAR
STARTCHAR h
ENCODING 104
SWIDTH 500 0
DWIDTH 10 0
BBX 9 13 1 0
BITMAP
7000
3000
3000
2000
6000
6600
6f00
7300
6300
c600
c600
c680
c700
ENDCHAR
STARTCHAR i
ENCODING 105
SWIDTH 278 0
DWIDTH 5 0
BBX 4 13 1 0
BITMAP
30
30
00
00
00
e0
60
60
40
c0
c0
d0
e0
ENDCHAR
STARTCHAR j
ENCODING 106
SWIDTH 278 0
DWIDTH 5 0
BBX 7 16 -2 -3
BITMAP
06
06
00
00
00
1c
0c
0c
0c
0c
18
18
18
18
d0
e0
ENDCHAR
STARTCHAR k
ENCODING 107
SWIDTH 444 0
DWIDTH 8 0
BBX 8 13 1 0
BITMAP
70
30
30
20
60
67
66
68
70
f0
d8
de
cc
ENDCHAR
STARTCHAR l
ENCODING 108
SWIDTH 278 0
DWIDTH 5 0
BBX 4 13 1 0
BITMAP
70
30
30
20
60
60
60
60
60
c0
c0
d0
e0
ENDCHAR
STARTCHAR m
ENCODING 109
SWIDTH 722 0
DWIDTH 15 0
BBX 14 8 1 0
BITMAP
e660
6ef8
7398
6318
c630
c630
c634
c638
ENDCHAR
STARTCHAR n
ENCODING 110
SWIDTH 500 0
DWIDTH 10 0
BBX 9 8 1 0
BITMAP
e600
6f00
7300
6300
c600
c600
c680
c700
ENDCHAR
STARTCHAR o
ENCODING 111
SWIDTH 500 0
DWIDTH 9 0
BBX 8 8 1 0
BITMAP
1e
67
43
c3
c3
c2
e6
78
ENDCHAR
STARTCHAR p
ENCODING 112
SWIDTH 500 0
DWIDTH 9 0
BBX 10 12 -1 -4
BITMAP
3b80
1cc0
18c0
18c0
30c0
3180
3100
3e00
6000
6000
6000
f000
ENDCHAR
STARTCHAR q
ENCODING 113
SWIDTH 500 0
DWIDTH 9 0
BBX 8 12 1 -4
BITMAP
1f
63
43
c3
c6
c6
ee
36
04
0c
0c
1e
ENDCHAR
STARTCHAR r
ENCODING 114
SWIDTH 389 0
DWIDTH 6 0
BBX 6 8 1 0
BITMAP
ec
6c
70
60
c0
c0
c0
c0
ENDCHAR
STARTCHAR s
ENCODING 115
SWIDTH 389 0
DWIDTH 8 0
BBX 6 8 1 0
BITMAP
3c
64
60
30
18
8c
cc
f8
ENDCHAR
STARTCHAR t
ENCODING 116
SWIDTH 278 0
DWIDTH 5 0
BBX 5 10 1 0
BITMAP
10
30
f8
60
60
40
c0
c0
d0
60
ENDCHAR
STARTCHAR u
ENCODING 117
SWIDTH 500 0
DWIDTH 9 0
BBX 8 8 1 0
BITMAP
e3
63
63
46
c6
ce
f7
66
ENDCHAR
STARTCHAR v
ENCODING 118
SWIDTH 444 0
DWIDTH 8 0
BBX 8 8 0 0
BITMAP
e3
63
62
24
34
38
38
30
ENDCHAR
STARTCHAR w
ENCODING 119
SWIDTH 667 0
DWIDTH 13 0
BBX 13 8 0 0
BITMAP
e318
6318
6310
2530
35a0
39c0
3180
2100
ENDCHAR
STARTCHAR x
ENCODING 120
SWIDTH 444 0
DWIDTH 8 0
BBX 8 8 0 0
BITMAP
73
36
3c
18
38
2c
6f
c6
ENDCHAR
STARTCHAR y
ENCODING 121
SWIDTH 444 0
DWIDTH 8 0
BBX 9 12 -1 -4
BITMAP
7180
3180
3100
1200
1a00
1c00
1c00
0800
1800
1000
3000
e000
ENDCHAR
STARTCHAR z
ENCODING 122
SWIDTH 389 0
DWIDTH 7 0
BBX 7 8 0 0
BITMAP
7e
46
0c
18
30
60
c4
fc
ENDCHAR
STARTCHAR braceleft
ENCODING 123
SWIDTH 400 0
DWIDTH 8 0
BBX 7 17 2 -4
BITMAP
06
08
18
18
18
10
30
60
c0
60
20
20
60
60
60
60
30
ENDCHAR
STARTCHAR bar
ENCODING 124
SWIDTH 275 0
DWIDTH 5 0
BBX 5 17 0 -4
BITMAP
08
08
08
10
10
10
20
20
20
40
40
40
40
80
80
80
80
ENDCHAR
STARTCHAR braceright
ENCODING 125
SWIDTH 400 0
DWIDTH 8 0
BBX 7 17 0 -4
BITMAP
18
0c
0c
0c
0c
08
08
0c
06
0c
18
10
30
30
30
20
c0
ENDCHAR
STARTCHAR asciitilde
ENCODING 126
SWIDTH 541 0
DWIDTH 10 0
BBX 9 3 1 3
BITMAP
3080
7f00
8600
ENDCHAR
STARTCHAR nobreakspace
ENCODING 160
SWIDTH 250 0
DWIDTH 4 0
BBX 1 1 0 0
BITMAP
00
ENDCHAR
STARTCHAR Aogonek
ENCODING 161
SWIDTH 611 0
DWIDTH 11 0
BBX 11 17 0 -4
BITMAP
00c0
01c0
01c0
02c0
06c0
04c0
0cc0
08c0
1fc0
10c0
20c0
60c0
f1e0
0c00
1800
1900
0e00
ENDCHAR
STARTCHAR breve
ENCODING 162
SWIDTH 333 0
DWIDTH 6 0
BBX 6 3 2 9
BITMAP
84
f8
70
ENDCHAR
STARTCHAR Lstroke
ENCODING 163
SWIDTH 556 0
DWIDTH 10 0
BBX 10 13 1 0
BITMAP
3c00
1800
1800
1800
3200
3c00
3000
6000
e000
6040
6040
6180
ff80
ENDCHAR
STARTCHAR currency
ENCODING 164
SWIDTH 500 0
DWIDTH 9 0
BBX 8 7 1 3
BITMAP
81
7e
66
42
66
7e
81
ENDCHAR
STARTCHAR Lcaron
ENCODING 165
SWIDTH 556 0
DWIDTH 10 0
BBX 10 14 1 0
BITMAP
0180
3d80
1880
1900
1800
3000
3000
3000
3000
6000
6040
6040
6180
ff80
ENDCHAR
STARTCHAR Sacute
ENCODING 166
SWIDTH 500 0
DWIDTH 9 0
BBX 9 17 1 0
BITMAP
0180
0300
0400
0000
0f80
1980
3080
3080
3800
1c00
0e00
0f00
0700
8300
8300
c600
fc00
ENDCHAR
STARTCHAR section
ENCODING 167
SWIDTH 500 0
DWIDTH 9 0
BBX 8 16 1 -2
BITMAP
0e
13
23
30
38
3c
4e
46
62
72
3c
1c
0c
c4
c8
70
ENDCHAR
STARTCHAR diaeresis
ENCODING 168
SWIDTH 333 0
DWIDTH 6 0
BBX 5 2 2 9
BITMAP
d8
d8
ENDCHAR
STARTCHAR Scaron
ENCODING 169
SWIDTH 500 0
DWIDTH 9 0
BBX 9 17 1 0
BITMAP
0880
0f00
0600
0000
0f80
1980
3080
3080
3800
1c00
0e00
0f00
0700
8300
8300
c600
fc00
ENDCHAR
STARTCHAR Scedilla
ENCODING 170
SWIDTH 500 0
DWIDTH 9 0
BBX 9 17 1 -4
BITMAP
0f80
1980
3080
3080
3800
1c00
0e00
0f00
0700
8300
8300
c600
fc00
0400
0600
1600
0c00
ENDCHAR
STARTCHAR Tcaron
ENCODING 171
SWIDTH 556 0
DWIDTH 10 0
BBX 11 17 1 0
BITMAP
0880
0f00
0600
0000
7fe0
c660
8620
0600
0c00
0c00
0c00
0c00
1800
1800
1800
1800
3c00
ENDCHAR
STARTCHAR Zacute
ENCODING 172
SWIDTH 556 0
DWIDTH 10 0
BBX 12 17 0 0
BITMAP
00c0
0180
0200
0000
3ff0
60e0
40c0
0180
0380
0700
0e00
1c00
1c00
3800
7020
60e0
ffc0
ENDCHAR
STARTCHAR hyphen
ENCODING 173
SWIDTH 333 0
DWIDTH 6 0
BBX 4 2 1 3
BITMAP
f0
f0
ENDCHAR
STARTCHAR Zcaron
ENCODING 174
SWIDTH 556 0
DWIDTH 10 0
BBX 12 17 0 0
BITMAP
0440
0780
0300
0000
3ff0
60e0
40c0
0180
0380
0700
0e00
1c00
1c00
3800
7020
60e0
ffc0
ENDCHAR
STARTCHAR Zabovedot
ENCODING 175
SWIDTH 556 0
DWIDTH 10 0
BBX 12 16 0 0
BITMAP
0300
0300
0000
3ff0
60e0
40c0
0180
0380
0700
0e00
1c00
1c00
3800
7020
60e0
ffc0
ENDCHAR
STARTCHAR degree
ENCODING 176
SWIDTH 400 0
DWIDTH 7 0
BBX 6 6 2 7
BITMAP
78
cc
84
84
cc
78
ENDCHAR
STARTCHAR aogonek
ENCODING 177
SWIDTH 500 0
DWIDTH 10 0
BBX 9 12 1 -4
BITMAP
1e80
6700
4300
c300
c600
c600
ee80
3300
1800
3000
3200
1c00
ENDCHAR
STARTCHAR ogonek
ENCODING 178
SWIDTH 333 0
DWIDTH 6 0
BBX 5 4 2 -4
BITMAP
60
c0
c8
70
ENDCHAR
STARTCHAR lstroke
ENCODING 179
SWIDTH 278 0
DWIDTH 5 0
BBX 7 13 0 0
BITMAP
38
18
18
1a
3c
30
70
b0
30
60
60
68
70
ENDCHAR
STARTCHAR acute
ENCODING 180
SWIDTH 333 0
DWIDTH 6 0
BBX 4 3 3 10
BITMAP
30
60
80
ENDCHAR
STARTCHAR lcaron
ENCODING 181
SWIDTH 426 0
DWIDTH 8 0
BBX 7 14 1 0
BITMAP
06
76
32
34
20
60
60
60
60
60
c0
c0
d0
e0
ENDCHAR
STARTCHAR sacute
ENCODING 182
SWIDTH 389 0
DWIDTH 8 0
BBX 7 12 1 0
BITMAP
06
0c
10
00
3c
64
60
30
18
8c
cc
f8
ENDCHAR
STARTCHAR caron
ENCODING 183
SWIDTH 333 0
DWIDTH 6 0
BBX 5 3 2 9
BITMAP
88
f0
60
ENDCHAR
STARTCHAR cedilla
ENCODING 184
SWIDTH 333 0
DWIDTH 6 0
BBX 4 4 1 -4
BITMAP
20
30
b0
60
ENDCHAR
STARTCHAR scaron
ENCODING 185
SWIDTH 389 0
DWIDTH 8 0
BBX 7 12 1 0
BITMAP
22
3c
18
00
3c
64
60
30
18
8c
cc
f8
ENDCHAR
STARTCHAR scedilla
ENCODING 186
SWIDTH 389 0
DWIDTH 8 0
BBX 6 12 1 -4
BITMAP
3c
64
60
30
18
8c
cc
f8
10
18
58
30
ENDCHAR
STARTCHAR tcaron
ENCODING 187
SWIDTH 373 0
DWIDTH 7 0
BBX 7 13 1 0
BITMAP
06
06
02
14
30
f8
60
60
40
c0
c0
d0
60
ENDCHAR
STARTCHAR zacute
ENCODING 188
SWIDTH 389 0
DWIDTH 7 0
BBX 7 12 0 0
BITMAP
06
0c
10
00
7e
46
0c
18
30
60
c4
fc
ENDCHAR
STARTCHAR doubleacute
ENCODING 189
SWIDTH 333 0
DWIDTH 6 0
BBX 7 3 1 9
BITMAP
36
6c
90
ENDCHAR
STARTCHAR zcaron
ENCODING 190
SWIDTH 389 0
DWIDTH 7 0
BBX 7 12 0 0
BITMAP
22
3c
18
00
7e
46
0c
18
30
60
c4
fc
ENDCHAR
STARTCHAR zabovedot
ENCODING 191
SWIDTH 389 0
DWIDTH 7 0
BBX 7 11 0 0
BITMAP
18
18
00
7e
46
0c
18
30
60
c4
fc
ENDCHAR
STARTCHAR Racute
ENCODING 192
SWIDTH 611 0
DWIDTH 12 0
BBX 11 17 1 0
BITMAP
00c0
0180
0200
0000
3fc0
18e0
1860
1860
30e0
31c0
3f00
3600
6300
6380
6180
61c0
f0e0
ENDCHAR
STARTCHAR Aacute
ENCODING 193
SWIDTH 611 0
DWIDTH 11 0
BBX 12 17 0 0
BITMAP
0030
0060
0080
0000
00c0
01c0
01c0
02c0
06c0
04c0
0cc0
08c0
1fc0
10c0
20c0
60c0
f1e0
ENDCHAR
STARTCHAR Acircumflex
ENCODING 194
SWIDTH 611 0
DWIDTH 11 0
BBX 12 17 0 0
BITMAP
0060
00f0
0110
0000
00c0
01c0
01c0
02c0
06c0
04c0
0cc0
08c0
1fc0
10c0
20c0
60c0
f1e0
ENDCHAR
STARTCHAR Abreve
ENCODING 195
SWIDTH 611 0
DWIDTH 11 0
BBX 12 17 0 0
BITMAP
0210
03e0
01c0
0000
00c0
01c0
01c0
02c0
06c0
04c0
0cc0
08c0
1fc0
10c0
20c0
60c0
f1e0
ENDCHAR
STARTCHAR Adiaeresis
ENCODING 196
SWIDTH 611 0
DWIDTH 11 0
BBX 12 16 0 0
BITMAP
01b0
01b0
0000
00c0
01c0
01c0
02c0
06c0
04c0
0cc0
08c0
1fc0
10c0
20c0
60c0
f1e0
ENDCHAR
STARTCHAR Lacute
ENCODING 197
SWIDTH 556 0
DWIDTH 10 0
BBX 10 17 1 0
BITMAP
0300
0600
0800
0000
3c00
1800
1800
1800
3000
3000
3000
3000
6000
6040
6040
6180
ff80
ENDCHAR
STARTCHAR Cacute
ENCODING 198
SWIDTH 667 0
DWIDTH 12 0
BBX 12 17 2 0
BITMAP
0060
00c0
0100
0000
03d0
0c70
3820
3020
6000
e000
c000
c000
c000
c000
c040
6180
3e00
ENDCHAR
STARTCHAR Ccedilla
ENCODING 199
SWIDTH 667 0
DWIDTH 12 0
BBX 12 17 2 -4
BITMAP
03d0
0c70
3820
3020
6000
6000
e000
c000
c000
c000
4040
6180
3e00
0800
0c00
2c00
1800
ENDCHAR
STARTCHAR Ccaron
ENCODING 200
SWIDTH 667 0
DWIDTH 12 0
BBX 12 17 2 0
BITMAP
0220
03c0
0180
0000
03d0
0c70
3820
3020
6000
e000
c000
c000
c000
c000
c040
6180
3e00
ENDCHAR
STARTCHAR Eacute
ENCODING 201
SWIDTH 611 0
DWIDTH 11 0
BBX 10 17 1 0
BITMAP
0180
0300
0400
0000
3fc0
18c0
1840
1840
3100
3100
3e00
3200
6200
6040
6040
6180
ff80
ENDCHAR
STARTCHAR Eogonek
ENCODING 202
SWIDTH 611 0
DWIDTH 11 0
BBX 10 17 1 -4
BITMAP
3fc0
18c0
1840
1840
3100
3100
3e00
3200
6200
6040
6040
6180
ff80
1800
3000
3200
1c00
ENDCHAR
STARTCHAR Ediaeresis
ENCODING 203
SWIDTH 611 0
DWIDTH 11 0
BBX 10 16 1 0
BITMAP
0cc0
0cc0
0000
3fc0
18c0
1840
1840
3100
3100
3e00
3200
6200
6040
6040
6180
ff80
ENDCHAR
STARTCHAR Ecaron
ENCODING 204
SWIDTH 611 0
DWIDTH 11 0
BBX 10 17 1 0
BITMAP
0440
0780
0300
0000
3fc0
18c0
1840
1840
3100
3100
3e00
3200
6200
6040
6040
6180
ff80
ENDCHAR
STARTCHAR Iacute
ENCODING 205
SWIDTH 333 0
DWIDTH 6 0
BBX 7 17 1 0
BITMAP
06
0c
10
00
3c
18
18
18
30
30
30
30
60
60
60
60
f0
ENDCHAR
STARTCHAR Icircumflex
ENCODING 206
SWIDTH 333 0
DWIDTH 6 0
BBX 7 17 1 0
BITMAP
0c
1e
22
00
3c
18
18
18
30
30
30
30
60
60
60
60
f0
ENDCHAR
STARTCHAR Dcaron
ENCODING 207
SWIDTH 722 0
DWIDTH 14 0
BBX 13 17 1 0
BITMAP
0220
03c0
0180
0000
3fc0
1870
1830
1818
3018
3018
3018
3030
6030
6060
60e0
6380
fe00
ENDCHAR
STARTCHAR Dstroke
ENCODING 208
SWIDTH 722 0
DWIDTH 14 0
BBX 13 13 1 0
BITMAP
3fc0
1870
1838
1818
3018
3018
fc38
3030
6070
6060
60c0
6380
fe00
ENDCHAR
STARTCHAR Nacute
ENCODING 209
SWIDTH 667 0
DWIDTH 12 0
BBX 14 17 0 0
BITMAP
0030
0060
0080
0000
3c3c
0c08
1e08
1618
1710
1310
3330
31b0
21a0
21e0
60e0
60c0
f040
ENDCHAR
STARTCHAR Ncaron
ENCODING 210
SWIDTH 667 0
DWIDTH 12 0
BBX 14 17 0 0
BITMAP
0110
01e0
00c0
0000
3c3c
0c08
1e08
1618
1710
1310
3330
31b0
21a0
21e0
60e0
60c0
f040
ENDCHAR
STARTCHAR Oacute
ENCODING 211
SWIDTH 722 0
DWIDTH 14 0
BBX 12 17 2 0
BITMAP
0030
0060
0080
0000
03c0
0c60
3830
3030
7030
6030
e070
c060
c0e0
c0c0
41c0
6380
3e00
ENDCHAR
STARTCHAR Ocircumflex
ENCODING 212
SWIDTH 722 0
DWIDTH 14 0
BBX 12 17 2 0
BITMAP
00c0
01e0
0220
0000
03c0
0c60
3830
3030
7030
6030
e070
c060
c0e0
c0c0
41c0
6380
3e00
ENDCHAR
STARTCHAR Odoubleacute
ENCODING 213
SWIDTH 722 0
DWIDTH 14 0
BBX 13 17 2 0
BITMAP
00d8
01b0
0240
0000
03c0
0c60
3830
3030
7030
6030
e070
c060
c0e0
c0c0
41c0
6380
3e00
ENDCHAR
STARTCHAR Odiaeresis
ENCODING 214
SWIDTH 722 0
DWIDTH 14 0
BBX 12 16 2 0
BITMAP
0660
0660
0000
03c0
0c60
3830
3030
7030
6030
e070
c060
c0e0
c0c0
41c0
6380
3e00
ENDCHAR
STARTCHAR multiply
ENCODING 215
SWIDTH 675 0
DWIDTH 13 0
BBX 10 9 2 0
BITMAP
c0c0
6180
3300
1e00
0c00
1e00
3300
6180
c0c0
ENDCHAR
STARTCHAR Rcaron
ENCODING 216
SWIDTH 611 0
DWIDTH 12 0
BBX 11 17 1 0
BITMAP
0440
0780
0300
0000
3fc0
18e0
1860
1860
30e0
31c0
3f00
3600
6300
6380
6180
61c0
f0e0
ENDCHAR
STARTCHAR Uring
ENCODING 217
SWIDTH 722 0
DWIDTH 14 0
BBX 13 18 2 0
BITMAP
0180
0240
0240
0180
0000
7c78
3030
3020
3020
6060
6040
6040
e0c0
c080
c180
c180
e300
7e00
ENDCHAR
STARTCHAR Uacute
ENCODING 218
SWIDTH 722 0
DWIDTH 14 0
BBX 13 17 2 0
BITMAP
0060
00c0
0100
0000
7c78
3030
3020
3020
6060
6040
6040
e0c0
c080
c180
c180
e300
7e00
ENDCHAR
STARTCHAR Udoubleacute
ENCODING 219
SWIDTH 722 0
DWIDTH 14 0
BBX 13 17 2 0
BITMAP
00d8
01b0
0240
0000
7c78
3030
3020
3020
6060
6040
6040
e0c0
c080
c180
c180
e300
7e00
ENDCHAR
STARTCHAR Udiaeresis
ENCODING 220
SWIDTH 722 0
DWIDTH 14 0
BBX 13 16 2 0
BITMAP
0660
0660
0000
7c78
3030
3020
3020
6060
6040
6040
e0c0
c080
c180
c180
e300
7e00
ENDCHAR
STARTCHAR Yacute
ENCODING 221
SWIDTH 556 0
DWIDTH 11 0
BBX 11 17 2 0
BITMAP
0180
0300
0400
0000
f9e0
60c0
7180
3300
3600
1c00
1800
1800
1800
3000
3000
3000
fc00
ENDCHAR
STARTCHAR Tcedilla
ENCODING 222
SWIDTH 556 0
DWIDTH 10 0
BBX 11 17 1 -4
BITMAP
7fe0
c660
8620
0600
0c00
0c00
0c00
0c00
1800
1800
1800
1800
3c00
0200
0300
0b00
0600
ENDCHAR
STARTCHAR ssharp
ENCODING 223
SWIDTH 500 0
DWIDTH 9 0
BBX 10 17 -1 -4
BITMAP
0780
0cc0
08c0
18c0
1980
1b00
1980
1980
1980
1180
3180
3500
3600
2000
2000
e000
c000
ENDCHAR
STARTCHAR racute
ENCODING 224
SWIDTH 389 0
DWIDTH 6 0
BBX 6 12 1 0
BITMAP
0c
18
20
00
ec
6c
70
60
c0
c0
c0
c0
ENDCHAR
STARTCHAR aacute
ENCODING 225
SWIDTH 500 0
DWIDTH 10 0
BBX 9 12 1 0
BITMAP
0180
0300
0400
0000
1e80
6700
4300
c300
c600
c600
ee80
3300
ENDCHAR
STARTCHAR acircumflex
ENCODING 226
SWIDTH 500 0
DWIDTH 10 0
BBX 9 12 1 0
BITMAP
0600
0f00
1100
0000
1e80
6700
4300
c300
c600
c600
ee80
3300
ENDCHAR
STARTCHAR abreve
ENCODING 227
SWIDTH 500 0
DWIDTH 10 0
BBX 9 12 1 0
BITMAP
2100
3e00
1c00
0000
1e80
6700
4300
c300
c600
c600
ee80
3300
ENDCHAR
STARTCHAR adiaeresis
ENCODING 228
SWIDTH 500 0
DWIDTH 10 0
BBX 9 11 1 0
BITMAP
3600
3600
0000
1e80
6700
4300
c300
c600
c600
ee80
3300
ENDCHAR
STARTCHAR lacute
ENCODING 229
SWIDTH 278 0
DWIDTH 5 0
BBX 6 17 1 0
BITMAP
0c
18
20
00
70
30
30
20
60
60
60
60
60
c0
c0
d0
e0
ENDCHAR
STARTCHAR cacute
ENCODING 230
SWIDTH 444 0
DWIDTH 8 0
BBX 7 12 1 0
BITMAP
06
0c
10
00
1e
72
40
c0
c0
c0
e4
78
ENDCHAR
STARTCHAR ccedilla
ENCODING 231
SWIDTH 444 0
DWIDTH 8 0
BBX 7 12 1 -4
BITMAP
1e
72
40
c0
c0
c0
e4
78
20
30
b0
60
ENDCHAR
STARTCHAR ccaron
ENCODING 232
SWIDTH 444 0
DWIDTH 8 0
BBX 7 12 1 0
BITMAP
22
3c
18
00
1e
72
40
c0
c0
c0
e4
78
ENDCHAR
STARTCHAR eacute
ENCODING 233
SWIDTH 444 0
DWIDTH 8 0
BBX 8 12 1 0
BITMAP
03
06
08
00
1c
66
46
cc
f0
c2
e4
78
ENDCHAR
STARTCHAR eogonek
ENCODING 234
SWIDTH 444 0
DWIDTH 8 0
BBX 7 12 1 -4
BITMAP
1c
66
46
cc
f0
c2
e4
78
30
60
64
38
ENDCHAR
STARTCHAR ediaeresis
ENCODING 235
SWIDTH 444 0
DWIDTH 8 0
BBX 7 11 1 0
BITMAP
36
36
00
1c
66
46
cc
f0
c2
e4
78
ENDCHAR
STARTCHAR ecaron
ENCODING 236
SWIDTH 444 0
DWIDTH 8 0
BBX 7 12 1 0
BITMAP
22
3c
18
00
1c
66
46
cc
f0
c2
e4
78
ENDCHAR
STARTCHAR iacute
ENCODING 237
SWIDTH 278 0
DWIDTH 5 0
BBX 5 12 1 0
BITMAP
18
30
40
00
60
e0
60
40
c0
c0
d0
e0
ENDCHAR
STARTCHAR icircumflex
ENCODING 238
SWIDTH 278 0
DWIDTH 5 0
BBX 5 12 1 0
BITMAP
30
78
88
00
60
e0
60
40
c0
c0
d0
e0
ENDCHAR
STARTCHAR dcaron
ENCODING 239
SWIDTH 693 0
DWIDTH 13 0
BBX 12 14 1 0
BITMAP
0030
03b0
0190
01a0
0180
0100
1d00
6700
4300
c200
c600
c600
ee80
3300
ENDCHAR
STARTCHAR dstroke
ENCODING 240
SWIDTH 693 0
DWIDTH 13 0
BBX 12 13 1 0
BITMAP
0380
0180
0ff0
0180
0100
1d00
6700
4300
c200
c600
c600
ee80
3300
ENDCHAR
STARTCHAR nacute
ENCODING 241
SWIDTH 500 0
DWIDTH 10 0
BBX 9 12 1 0
BITMAP
0600
0c00
1000
0000
e600
6f00
7300
6300
c600
c600
c680
c700
ENDCHAR
STARTCHAR ncaron
ENCODING 242
SWIDTH 500 0
DWIDTH 10 0
BBX 9 12 1 0
BITMAP
2200
3c00
1800
0000
e600
6f00
7300
6300
c600
c600
c680
c700
ENDCHAR
STARTCHAR oacute
ENCODING 243
SWIDTH 500 0
DWIDTH 9 0
BBX 8 12 1 0
BITMAP
03
06
08
00
1e
67
43
c3
c3
c2
e6
78
ENDCHAR
STARTCHAR ocircumflex
ENCODING 244
SWIDTH 500 0
DWIDTH 9 0
BBX 8 12 1 0
BITMAP
0c
1e
22
00
1e
67
43
c3
c3
c2
e6
78
ENDCHAR
STARTCHAR odoubleacute
ENCODING 245
SWIDTH 500 0
DWIDTH 9 0
BBX 10 12 1 0
BITMAP
06c0
0d80
1200
0000
1e00
6700
4300
c300
c300
c200
e600
7800
ENDCHAR
STARTCHAR odiaeresis
ENCODING 246
SWIDTH 500 0
DWIDTH 9 0
BBX 8 11 1 0
BITMAP
36
36
00
1e
67
43
c3
c3
c2
e6
78
ENDCHAR
STARTCHAR division
ENCODING 247
SWIDTH 675 0
DWIDTH 13 0
BBX 8 9 3 0
BITMAP
18
18
00
00
ff
00
00
18
18
ENDCHAR
STARTCHAR rcaron
ENCODING 248
SWIDTH 389 0
DWIDTH 6 0
BBX 6 12 1 0
BITMAP
44
78
30
00
ec
6c
70
60
c0
c0
c0
c0
ENDCHAR
STARTCHAR uring
ENCODING 249
SWIDTH 500 0
DWIDTH 9 0
BBX 8 13 1 0
BITMAP
18
24
24
18
00
e3
63
63
46
c6
ce
f7
66
ENDCHAR
STARTCHAR uacute
ENCODING 250
SWIDTH 500 0
DWIDTH 9 0
BBX 8 12 1 0
BITMAP
03
06
08
00
e3
63
63
46
c6
ce
f7
66
ENDCHAR
STARTCHAR udoubleacute
ENCODING 251
SWIDTH 500 0
DWIDTH 9 0
BBX 9 12 1 0
BITMAP
0d80
1b00
2400
0000
e300
6300
6300
4600
c600
ce00
f700
6600
ENDCHAR
STARTCHAR udiaeresis
ENCODING 252
SWIDTH 500 0
DWIDTH 9 0
BBX 8 11 1 0
BITMAP
36
36
00
e3
63
63
46
c6
ce
f7
66
ENDCHAR
STARTCHAR yacute
ENCODING 253
SWIDTH 444 0
DWIDTH 8 0
BBX 9 16 -1 -4
BITMAP
0180
0300
0400
0000
7180
3180
3100
1200
1a00
1c00
1c00
0800
1800
1000
3000
e000
ENDCHAR
STARTCHAR tcedilla
ENCODING 254
SWIDTH 278 0
DWIDTH 5 0
BBX 5 14 1 -4
BITMAP
10
30
f8
60
60
40
c0
c0
d0
60
10
18
58
30
ENDCHAR
STARTCHAR abovedot
ENCODING 255
SWIDTH 333 0
DWIDTH 6 0
BBX 2 2 3 9
BITMAP
c0
c0
ENDCHAR
ENDFONT
